<?xml version="1.0" encoding="UTF-8" standalone="no"?>
<svg
   xmlns:dc="http://purl.org/dc/elements/1.1/"
   xmlns:cc="http://creativecommons.org/ns#"
   xmlns:rdf="http://www.w3.org/1999/02/22-rdf-syntax-ns#"
   xmlns:svg="http://www.w3.org/2000/svg"
   xmlns="http://www.w3.org/2000/svg"
   width="600"
   height="250"
   viewBox="0 0 158.75 66.145835"
   version="1.1"
   id="svg8">
  <defs
     id="defs2" />
  <metadata
     id="metadata5">
    <rdf:RDF>
      <cc:Work
         rdf:about="">
        <dc:format>image/svg+xml</dc:format>
        <dc:type
           rdf:resource="http://purl.org/dc/dcmitype/StillImage" />
        <dc:title></dc:title>
      </cc:Work>
    </rdf:RDF>
  </metadata>
  <g
     style="fill:#ffffff;fill-opacity:1"
     id="layer1"
     transform="translate(0,-230.85415)">
    <path
       id="path4519"
       style="font-style:normal;font-variant:normal;font-weight:normal;font-stretch:normal;font-size:60.69021225px;line-height:1.25;font-family:Billgates;-inkscape-font-specification:'Billgates, Normal';font-variant-ligatures:normal;font-variant-caps:normal;font-variant-numeric:normal;font-feature-settings:normal;text-align:start;letter-spacing:0px;word-spacing:0px;writing-mode:lr-tb;text-anchor:start;fill:#ffffff;fill-opacity:1;stroke:none;stroke-width:0.35013583"
       d="m 15.168437,284.12619 q -0.303451,-0.91035 -0.121381,-2.54898 0.182071,-1.63864 0.606903,-3.45935 0.424831,-1.8207 0.971043,-3.58072 0.546212,-1.76001 1.031734,-2.85244 -1.153114,-0.6069 -1.820707,-1.27449 -0.606902,-0.6676 -0.971043,-1.2745 -0.303451,-0.66759 -0.364141,-1.15311 -0.06069,-0.54621 0,-0.84966 0.12138,-0.6676 0.424831,-0.72829 0.364141,-0.12138 0.303451,-0.30345 -0.06069,-0.12138 0.242761,0.18207 0.303451,0.24276 0.788973,0.66759 0.546212,0.42484 1.274494,0.91036 0.728283,0.42483 1.577946,0.6069 1.638635,-3.52003 3.641412,-7.28283 2.063468,-3.76279 4.126935,-7.16144 2.124157,-3.45934 4.066244,-6.31178 1.942087,-2.91313 3.520032,-4.67315 -4.126934,0.12138 -7.404205,0.97104 -3.277272,0.84967 -5.826261,2.06347 -2.488299,1.21381 -4.248315,2.54899 -1.760016,1.33519 -2.85244,2.4883 -1.577945,1.63864 -1.942086,2.67037 -0.364142,0.97104 -0.303452,1.57794 0.121381,0.54622 0.182071,0.84967 0.121381,0.24276 -0.485522,0.42483 -1.395874,0.30345 -2.0634668,-1.03173 -0.6675924,-1.33519 0.1820706,-4.55177 0.7889732,-2.91313 2.6703692,-5.34074 1.942087,-2.4883 4.551766,-4.36969 2.609679,-1.94209 5.76557,-3.21659 3.155891,-1.33518 6.493853,-1.94208 3.337962,-0.6069 6.615233,-0.42483 3.277272,0.12138 6.190402,1.09242 2.791749,0.97104 5.219358,2.85244 2.488299,1.8814 4.126934,4.43038 1.699326,2.54899 2.488299,5.5835 0.788973,2.97382 0.242761,6.19041 -0.606902,3.76279 -3.216581,7.22213 -2.548989,3.45934 -6.615233,6.00833 -4.005554,2.4883 -9.285603,3.7628 -5.219358,1.2138 -11.227689,0.6069 -1.699326,3.0952 -2.85244,5.76557 -1.092424,2.60968 -1.699326,4.309 1.577945,-0.0607 3.095201,0.0607 1.577945,0.0607 3.095201,0.78898 1.213804,0.54621 2.002777,1.45656 0.788972,0.91035 1.153114,1.82071 0.424831,0.97104 0.546212,1.76001 0.12138,0.84967 0.06069,1.2745 -0.121381,0.36414 -0.485522,0.54621 -0.364141,0.24276 -0.788973,0.30345 -0.424831,0.12138 -0.788972,0.0607 -0.303452,0 -0.364142,-0.12138 -0.06069,-0.18207 0.06069,-0.72828 0.182071,-0.54621 -0.12138,-0.97105 -0.728283,-0.48552 -2.184848,-0.6069 -1.456565,-0.12138 -3.277271,0 -1.760016,0.12138 -3.762793,0.36414 -1.942087,0.24276 -3.823484,0.48553 -1.820706,0.24276 -3.398651,0.36414 -1.577946,0.12138 -2.4882992,0 -0.3641413,-0.0607 -0.6675923,-0.72829 -0.3641413,-0.6069 -0.5462119,-1.39587 -0.1820707,-0.78897 -0.1820707,-1.51726 -0.06069,-0.72828 0.1213804,-0.97104 0.4855217,0 1.4565651,-0.18207 0.9710434,-0.18207 2.1848476,-0.42483 1.153114,-0.24276 2.488299,-0.54621 1.335184,-0.30345 2.609679,-0.54622 z m 33.986519,-27.97818 q 1.395875,-2.42761 1.395875,-4.67315 0,-2.30623 -1.153114,-4.12693 -1.153114,-1.82071 -3.398652,-3.03451 -2.245538,-1.2745 -5.280049,-1.63864 0.364142,0.24276 0.546212,0.72828 0.182071,0.42483 0.242761,0.91036 0.12138,0.42483 0.06069,0.84966 -0.06069,0.36414 -0.12138,0.48552 -1.395875,1.76002 -3.216581,4.43039 -1.760017,2.67037 -3.823484,5.82626 -2.002777,3.0952 -4.126934,6.55454 -2.124158,3.45934 -4.126935,6.7973 5.280049,-0.30345 9.406983,-2.12415 4.126935,-1.8814 7.040065,-4.12694 2.91313,-2.24554 4.551766,-4.24831 1.638635,-2.00278 2.002777,-2.60968 z" />
    <path
       id="path4521"
       style="font-style:normal;font-variant:normal;font-weight:normal;font-stretch:normal;font-size:60.69021225px;line-height:1.25;font-family:Billgates;-inkscape-font-specification:'Billgates, Normal';font-variant-ligatures:normal;font-variant-caps:normal;font-variant-numeric:normal;font-feature-settings:normal;text-align:start;letter-spacing:0px;word-spacing:0px;writing-mode:lr-tb;text-anchor:start;fill:#ffffff;fill-opacity:1;stroke:none;stroke-width:0.35013583"
       d="m 63.411465,248.56173 q 0.606902,-0.42483 1.760017,-0.24276 1.213804,0.18207 2.245537,0.91035 1.092424,0.6676 1.638636,1.69933 0.546212,1.03173 -0.182071,2.30623 -0.303451,0.42483 -0.910353,1.2138 -0.606902,0.72828 -1.456565,1.45657 -0.788973,0.72828 -1.760016,1.27449 -0.971043,0.48552 -2.063467,0.42483 -0.788973,-0.12138 -1.395875,-0.66759 -0.606902,-0.6069 -0.728283,-1.57795 -0.12138,-0.91035 0.121381,-2.00277 0.242761,-1.15312 0.667592,-2.12416 0.485522,-1.03173 1.031734,-1.76002 0.546212,-0.72828 1.031733,-0.91035 z m -8.375249,33.98652 q 0,0.18207 0.303451,0.24276 0.303451,0.0607 0.606902,0.0607 0.364142,0 0.667593,0.0607 0.303451,0 0.303451,0.18207 0.06069,0.36414 -0.242761,0.91035 -0.242761,0.48553 -0.667593,0.97105 -0.364141,0.42483 -0.788972,0.78897 -0.424832,0.36414 -0.788973,0.42483 -0.667592,0.12138 -1.577946,-0.36414 -0.910353,-0.42483 -1.760016,-1.33518 -0.788972,-0.91036 -1.274494,-2.24554 -0.485522,-1.33519 -0.303451,-2.97382 0.18207,-1.57795 0.910353,-3.94487 0.728282,-2.4276 1.881397,-5.15866 1.153114,-2.73106 2.670369,-5.46212 1.577945,-2.79175 3.459342,-5.09798 0.849663,-0.36414 1.699326,0 0.910353,0.36414 1.577945,1.09242 0.728283,0.6676 1.031734,1.57795 0.303451,0.84966 -0.06069,1.45656 -0.242761,0.54622 -0.971044,2.06347 -0.667592,1.51726 -1.577945,3.52003 -0.849663,1.94209 -1.820706,4.18763 -0.971044,2.18485 -1.760017,4.12693 -0.728282,1.8814 -1.213804,3.27727 -0.424831,1.33519 -0.303451,1.63864 z" />
    <path
       id="path4523"
       style="font-style:normal;font-variant:normal;font-weight:normal;font-stretch:normal;font-size:60.69021225px;line-height:1.25;font-family:Billgates;-inkscape-font-specification:'Billgates, Normal';font-variant-ligatures:normal;font-variant-caps:normal;font-variant-numeric:normal;font-feature-settings:normal;text-align:start;letter-spacing:0px;word-spacing:0px;writing-mode:lr-tb;text-anchor:start;fill:#ffffff;fill-opacity:1;stroke:none;stroke-width:0.35013583"
       d="m 82.892077,280.9703 q 0.667592,-0.30345 0.849663,0.24276 0.242761,0.54622 -0.485522,1.76002 -0.667592,1.03173 -1.213804,1.57795 -0.546212,0.54621 -1.153114,0.72828 -0.546212,0.24276 -1.153114,0.24276 -0.546212,0 -1.213805,0 -1.031733,-0.0607 -2.245537,-0.78897 -1.213805,-0.72829 -2.366919,-1.82071 -1.153114,-1.15311 -2.184847,-2.54899 -0.971044,-1.45656 -1.517256,-2.91313 -0.788972,0.66759 -1.760016,1.69933 -0.910353,0.97104 -1.820706,2.06346 -0.849663,1.09243 -1.577946,2.18485 -0.667592,1.03174 -0.849663,1.82071 -0.24276,0.48552 -0.06069,0.78897 0.242761,0.36414 -0.12138,0.66759 -0.728283,0.36415 -1.274495,0.18207 -0.485521,-0.18207 -0.788972,-0.84966 -0.303452,-0.6069 -0.364142,-1.57794 -0.12138,-0.97105 0,-2.06347 0.182071,-1.09243 0.728283,-2.54899 0.546212,-1.45657 1.335184,-2.97382 0.788973,-1.57795 1.760017,-3.03451 1.031733,-1.45657 2.184847,-2.54899 -0.364141,-0.97104 -0.606902,-2.12416 -0.18207,-1.2138 -0.242761,-2.36692 -0.06069,-1.2138 0.06069,-2.36691 0.12138,-1.21381 0.303451,-2.18485 0.24276,-1.33519 0.728282,-2.12416 0.485522,-0.84966 0.971044,-1.15311 0.485521,-0.30345 0.910353,-0.12138 0.424831,0.18207 0.546212,0.84966 0.18207,0.72828 0.24276,1.63864 0.06069,0.84966 0.182071,1.8207 0.182071,0.97104 0.424832,2.00278 0.303451,1.03173 0.910353,2.06347 1.760016,-1.33519 3.398652,-2.67037 1.699326,-1.33519 3.216581,-2.36692 1.517255,-1.09243 2.85244,-1.76002 1.395875,-0.66759 2.609679,-0.72828 0.424832,0 1.213804,0.6069 0.788973,0.54621 1.517256,1.2745 0.728282,0.66759 1.092423,1.33518 0.364142,0.6069 -0.06069,0.78897 -1.335184,0.42483 -3.095201,1.45657 -1.699326,1.03173 -3.520032,2.36692 -1.760016,1.27449 -3.520032,2.79175 -1.760016,1.51725 -3.155891,2.91313 0.303451,0.72828 1.213804,2.24553 0.971043,1.45657 2.184848,2.85244 1.213804,1.33519 2.488298,2.24554 1.335185,0.91036 2.427609,0.42483 z" />
    <path
       id="path4525"
       style="font-style:normal;font-variant:normal;font-weight:normal;font-stretch:normal;font-size:60.69021225px;line-height:1.25;font-family:Billgates;-inkscape-font-specification:'Billgates, Normal';font-variant-ligatures:normal;font-variant-caps:normal;font-variant-numeric:normal;font-feature-settings:normal;text-align:start;letter-spacing:0px;word-spacing:0px;writing-mode:lr-tb;text-anchor:start;fill:#ffffff;fill-opacity:1;stroke:none;stroke-width:0.35013583"
       d="m 99.564812,248.56173 q 0.606898,-0.42483 1.760018,-0.24276 1.2138,0.18207 2.24554,0.91035 1.09242,0.6676 1.63863,1.69933 0.54621,1.03173 -0.18207,2.30623 -0.30345,0.42483 -0.91035,1.2138 -0.6069,0.72828 -1.45657,1.45657 -0.78897,0.72828 -1.76001,1.27449 -0.971046,0.48552 -2.06347,0.42483 -0.788973,-0.12138 -1.395875,-0.66759 -0.606902,-0.6069 -0.728283,-1.57795 -0.12138,-0.91035 0.121381,-2.00277 0.242761,-1.15312 0.667592,-2.12416 0.485522,-1.03173 1.031734,-1.76002 0.546212,-0.72828 1.031733,-0.91035 z m -8.375249,33.98652 q 0,0.18207 0.303451,0.24276 0.303451,0.0607 0.606902,0.0607 0.364142,0 0.667593,0.0607 0.303451,0 0.303451,0.18207 0.06069,0.36414 -0.242761,0.91035 -0.242761,0.48553 -0.667593,0.97105 -0.364141,0.42483 -0.788972,0.78897 -0.424832,0.36414 -0.788973,0.42483 -0.667592,0.12138 -1.577946,-0.36414 -0.910353,-0.42483 -1.760016,-1.33518 -0.788972,-0.91036 -1.274494,-2.24554 -0.485522,-1.33519 -0.303451,-2.97382 0.18207,-1.57795 0.910353,-3.94487 0.728282,-2.4276 1.881397,-5.15866 1.153114,-2.73106 2.670369,-5.46212 1.577945,-2.79175 3.459342,-5.09798 0.849663,-0.36414 1.699326,0 0.910353,0.36414 1.577945,1.09242 0.728283,0.6676 1.031734,1.57795 0.303451,0.84966 -0.06069,1.45656 -0.242761,0.54622 -0.971044,2.06347 -0.667592,1.51726 -1.577945,3.52003 -0.849663,1.94209 -1.820706,4.18763 -0.971044,2.18485 -1.760017,4.12693 -0.728282,1.8814 -1.213804,3.27727 -0.424831,1.33519 -0.303451,1.63864 z" />
    <path
       id="path4527"
       style="font-style:normal;font-variant:normal;font-weight:normal;font-stretch:normal;font-size:60.69021225px;line-height:1.25;font-family:Billgates;-inkscape-font-specification:'Billgates, Normal';font-variant-ligatures:normal;font-variant-caps:normal;font-variant-numeric:normal;font-feature-settings:normal;text-align:start;letter-spacing:0px;word-spacing:0px;writing-mode:lr-tb;text-anchor:start;fill:#ffffff;fill-opacity:1;stroke:none;stroke-width:0.35013583"
       d="m 117.58886,281.94135 q 0.0607,0.18207 0.36414,0.24276 0.30345,0.0607 0.60691,0.0607 0.36414,0 0.66759,0.0607 0.30345,0 0.30345,0.18207 0.0607,0.36414 -0.18207,0.91035 -0.24276,0.48552 -0.6069,0.97105 -0.36414,0.42483 -0.78898,0.78897 -0.42483,0.36414 -0.78897,0.42483 -0.66759,0.12138 -1.51725,-0.30345 -0.78898,-0.36414 -1.51726,-1.2745 -0.72828,-0.91035 -1.2138,-2.30622 -0.48553,-1.45657 -0.42484,-3.52004 0.0607,-2.24553 1.45657,-5.21935 1.39587,-3.03451 3.27727,-6.858 -1.03173,0.91036 -2.73106,2.54899 -1.69932,1.63864 -3.58072,3.94486 -1.8814,2.24554 -3.76279,5.09798 -1.8814,2.85244 -3.21659,6.1904 0,0.24276 -0.18207,0.84967 -0.18207,0.54621 -1.09242,0.54621 -0.66759,-0.0607 -1.51726,-0.72828 -0.78897,-0.6676 -1.51725,-1.51726 -0.667593,-0.91035 -1.092424,-1.82071 -0.424832,-0.97104 -0.364141,-1.69932 0.12138,-1.45657 0.667592,-3.33796 0.606902,-1.8814 1.456563,-3.88418 0.84966,-2.06346 1.8814,-4.06624 1.03173,-2.06347 2.06347,-3.88417 1.03173,-1.82071 1.94208,-3.21659 0.91036,-1.45656 1.57795,-2.24553 0.24276,-0.24276 1.03173,0.0607 0.84966,0.24276 1.69933,0.84966 0.84966,0.6069 1.39587,1.33518 0.6069,0.6676 0.42483,1.21381 -0.12138,0.36414 -0.6069,1.27449 -0.42483,0.84967 -1.03173,1.94209 -0.6069,1.09242 -1.2745,2.36692 -0.6069,1.27449 -1.15311,2.4883 1.69933,-2.00278 3.76279,-3.94487 2.12416,-2.00277 4.06625,-3.52003 1.94208,-1.57794 3.45934,-2.54899 1.57794,-1.03173 2.12416,-1.15311 0.72828,-0.0607 1.76001,0.78897 1.09243,0.84966 1.45657,1.94209 0.66759,1.51725 0.30345,2.36692 -0.24276,0.54621 -0.97104,2.00277 -0.6676,1.39588 -1.57795,3.27727 -0.84966,1.82071 -1.82071,3.88418 -0.91035,2.00277 -1.69932,3.82348 -0.72828,1.76002 -1.21381,3.03451 -0.42483,1.2745 -0.30345,1.57795 z" />
    <path
       id="path4529"
       style="font-style:normal;font-variant:normal;font-weight:normal;font-stretch:normal;font-size:60.69021225px;line-height:1.25;font-family:Billgates;-inkscape-font-specification:'Billgates, Normal';font-variant-ligatures:normal;font-variant-caps:normal;font-variant-numeric:normal;font-feature-settings:normal;text-align:start;letter-spacing:0px;word-spacing:0px;writing-mode:lr-tb;text-anchor:start;fill:#ffffff;fill-opacity:1;stroke:none;stroke-width:0.35013583"
       d="m 145.97007,282.60894 q 0.36414,0.18207 0.24276,0.72828 -0.12138,0.54621 -0.6069,1.15312 -0.42483,0.6069 -1.09243,1.03173 -0.66759,0.48552 -1.33518,0.36414 -1.21381,-0.12138 -2.06347,-0.78897 -0.78897,-0.72828 -1.33518,-1.63864 -0.48553,-0.97104 -0.72829,-2.06346 -0.24276,-1.09243 -0.24276,-2.00278 -0.0607,-0.78897 0.0607,-1.63864 0.12138,-0.84966 0.36414,-1.8207 -1.51725,2.24553 -2.85244,4.06624 -1.27449,1.82071 -2.4276,3.0952 -1.09243,1.2745 -2.06347,1.94209 -0.91035,0.66759 -1.69933,0.6069 -0.54621,0 -1.45656,-0.42483 -0.84967,-0.42483 -1.76002,-1.21381 -0.91035,-0.84966 -1.57794,-2.00277 -0.6676,-1.15312 -0.72829,-2.54899 -0.12138,-1.21381 0.48553,-3.15589 0.6069,-1.94209 1.69932,-4.12694 1.15312,-2.18484 2.67037,-4.43038 1.51726,-2.30623 3.27727,-4.12694 1.76002,-1.88139 3.64141,-3.0952 1.8814,-1.27449 3.70211,-1.45656 0.78897,-0.0607 1.63863,0.24276 0.91036,0.24276 1.69933,0.72828 0.84966,0.48552 1.51725,1.15311 0.6676,0.60691 1.03174,1.21381 1.51725,-2.06347 2.4883,-2.85244 0.54621,-0.36414 1.39587,0.0607 0.84966,0.36414 1.63864,1.09242 0.78897,0.6676 1.27449,1.39588 0.54621,0.72828 0.36414,0.97104 -0.6069,0.78897 -1.51725,2.18485 -0.91036,1.39587 -1.94209,3.0952 -0.97104,1.69933 -2.00278,3.64141 -1.03173,1.8814 -1.88139,3.70211 -0.84967,1.8207 -1.39588,3.39865 -0.54621,1.57794 -0.54621,2.67037 0,0.42483 0.24276,0.6069 0.24276,0.12138 0.54621,0.18207 0.36414,0 0.72829,0 0.36414,0 0.54621,0.0607 z m -14.62634,-2.36692 q 0.54621,-0.0607 1.94208,-1.51725 1.45657,-1.51726 3.27727,-3.7628 1.82071,-2.24554 3.7628,-4.85521 1.94208,-2.60968 3.58072,-4.91591 -0.18207,-0.78897 -0.6069,-1.57795 -0.42483,-0.78897 -0.72828,-0.66759 -1.39588,0.42483 -2.97382,1.94209 -1.51726,1.51725 -2.97382,3.45934 -1.39588,1.94209 -2.67037,4.12693 -1.21381,2.12416 -2.00278,3.88418 -0.72828,1.76001 -0.97104,2.91313 -0.24277,1.09242 0.36414,0.97104 z" />
  </g>
</svg>
